PathFileType	4	(X/Y/Z)	c:/Users/goper/Files/vsCode/490R/osim_files/A03/A03_Fast_01.trc
DataRate	CameraRate	NumFrames	NumMarkers	Units                	OrigDataRate	OrigDataStartFrame	OrigNumFrames
250.00	250.00	7	36	mm	250.0	874	2330
                Frame#	Time	LPSIS			LASIS			LTH1			LTH2			LTH3			LTH4			LLFE			LMFE			LSH1			LSH2			LSH3			LSH4			LLMAL			LMMAL			LCAL			LMTP5			LTOE			LMTP1			RPSIS			RASIS			RTH1			RTH2			RTH3			RTH4			RLFE			RMFE			RSH1			RSH2			RSH3			RSH4			RLMAL			RMMAL			RCAL			RMTP1			RTOE			RMTP5		
		X1	Y1	Z1	X2	Y2	Z2	X3	Y3	Z3	X4	Y4	Z4	X5	Y5	Z5	X6	Y6	Z6	X7	Y7	Z7	X8	Y8	Z8	X9	Y9	Z9	X10	Y10	Z10	X11	Y11	Z11	X12	Y12	Z12	X13	Y13	Z13	X14	Y14	Z14	X15	Y15	Z15	X16	Y16	Z16	X17	Y17	Z17	X18	Y18	Z18	X19	Y19	Z19	X20	Y20	Z20	X21	Y21	Z21	X22	Y22	Z22	X23	Y23	Z23	X24	Y24	Z24	X25	Y25	Z25	X26	Y26	Z26	X27	Y27	Z27	X28	Y28	Z28	X29	Y29	Z29	X30	Y30	Z30	X31	Y31	Z31	X32	Y32	Z32	X33	Y33	Z33	X34	Y34	Z34	X35	Y35	Z35	X36	Y36	Z36

874	3.49200	334.69473	1068.18188	302.52798	98.27853	980.09412	423.73364	90.14520	633.30322	469.78244	73.33977	593.47650	469.81158	33.68272	649.40448	450.39401	26.54187	606.22101	451.63565	66.54416	543.62549	461.18207	57.72656	543.90308	304.33362	119.38331	464.28452	459.18698	124.30730	416.06580	454.57739	59.68534	450.28381	447.87930	75.89675	405.79175	441.23181	178.22928	99.32880	402.09824	177.29510	108.80421	304.73593	253.35739	89.18742	355.14575	29.91753	39.17929	396.83472	6.31027	69.89165	326.29248	42.23071	51.48327	283.70370	334.21149	1072.24280	218.65652	98.25257	976.08856	126.62813	95.28932	624.83386	52.51346	88.97443	581.33154	56.87282	33.97573	628.65582	55.70479	34.84394	584.70123	59.78831	66.76300	547.67957	71.55443	31.49800	548.00146	196.12901	138.30930	532.93530	68.00375	168.54361	504.28546	58.20113	101.02460	482.27524	70.20662	139.92545	457.99036	61.26471	400.99872	303.00470	121.17397	385.64484	272.41953	207.28416	469.54297	321.08148	174.13615	364.86954	135.68394	226.45088	325.25192	128.45580	179.24937	370.17886	130.50232	109.12321
875	3.49600	329.18759	1068.78406	302.50812	92.43487	980.60846	423.89517	87.15942	633.08484	469.34949	71.23262	593.30060	469.74799	31.09070	648.85175	450.48087	24.29506	605.68835	451.65311	64.76793	543.42401	461.08203	55.03368	544.27289	304.28229	117.89484	464.27753	459.11404	122.99248	416.07007	454.53757	58.25469	450.05917	447.82150	74.67220	405.62006	441.15811	178.08516	99.43954	402.10739	177.63596	109.03192	304.85370	253.13148	89.34745	355.10257	29.91164	39.12238	396.82086	6.69445	70.09690	325.88800	42.13572	51.40956	283.68170	329.07938	1072.76379	218.66360	92.10025	977.51855	126.86283	86.22218	626.62476	52.82676	79.51870	583.05542	57.16938	25.30955	631.20416	55.94569	25.37776	587.15088	60.15328	56.88986	549.75317	71.90218	21.65227	550.42157	196.46735	128.39029	533.83563	68.33825	158.45387	504.87753	58.44896	90.23724	483.50360	70.73839	128.86961	458.92331	61.58875	387.18494	299.78055	121.33069	371.50250	269.43903	207.59885	456.38391	316.47504	174.40776	347.96207	133.19276	226.92345	308.29074	126.70081	179.64418	353.40732	127.80688	109.60284
876	3.50000	323.71268	1069.39087	302.48035	87.06294	981.16693	424.20981	84.74998	633.09021	469.32321	69.15726	593.10022	469.67322	28.48395	648.38861	450.53259	22.14379	605.11383	451.66748	63.04224	543.26654	460.99417	52.91087	544.33636	304.18369	116.42702	464.28619	459.02246	121.64812	416.12314	454.47147	56.82909	449.88199	447.70850	73.33731	405.47626	441.04370	177.90741	99.56522	402.11612	177.44977	109.12115	304.81128	253.16817	89.52858	355.12265	29.80133	39.06576	396.80246	6.31007	69.93716	325.98749	42.06629	51.33431	283.63580	322.94376	1073.35291	218.71870	86.03554	978.92120	127.09296	77.22206	628.35608	53.10250	70.26465	584.75885	57.44880	15.99998	633.44623	56.52657	15.97212	589.56390	60.58017	47.08232	551.86224	72.29881	11.95025	552.88220	196.79854	118.48696	534.63885	68.65993	148.13640	505.21176	58.77943	79.61726	484.98303	71.08912	117.79992	459.72604	61.92041	373.62796	296.10886	121.70232	357.19174	266.27713	207.88808	443.00430	311.60681	174.79654	330.26868	130.48134	227.38876	291.09216	124.83839	179.94046	336.39795	124.93869	110.00652
877	3.50400	318.19119	1069.94568	302.44305	81.97354	981.74744	424.69376	82.29163	633.09515	469.29590	67.16464	592.99036	469.59784	25.90000	647.89136	450.54221	19.98042	604.54327	451.60474	61.30018	543.13245	460.80978	51.27985	544.09003	304.02759	114.99332	464.33063	458.88025	120.34481	416.14572	454.33615	55.41415	449.68353	447.57727	72.13082	405.37387	440.95615	177.72240	99.71758	402.15488	176.79416	109.12158	304.65134	252.99483	89.72861	355.10245	29.68763	39.02499	396.77618	6.16055	69.85265	325.97205	41.98889	51.29119	283.60928	317.31616	1073.90955	218.70035	80.01920	980.25806	127.30846	68.33292	630.07996	53.38624	60.21597	586.73914	58.10989	7.53027	635.91339	56.76784	6.67977	591.90625	61.00520	37.40174	553.87830	72.70751	2.43373	555.29022	197.11562	108.78454	535.42224	69.02404	137.88333	505.43765	59.17292	69.06866	486.44907	71.46606	107.32504	460.96918	61.96833	359.69342	292.34998	122.00457	342.51938	262.72437	208.09474	429.30585	306.38269	175.45940	312.68869	127.73289	227.73982	273.75653	122.81661	180.11816	319.11270	122.01289	110.33704
878	3.50800	312.69269	1070.48804	302.35016	75.73051	982.39056	424.73129	79.85621	633.06683	469.15167	65.18322	592.83649	469.41269	23.38792	647.42554	450.59027	17.86042	603.95734	451.52533	59.69063	542.97504	460.62149	49.68014	543.79468	303.87292	113.61904	464.35202	458.75076	119.15385	416.21960	454.20825	54.10126	449.55167	447.44028	70.90659	405.29538	440.82648	177.56416	99.86918	402.09778	176.59380	109.26962	304.59006	252.80956	89.93140	355.06332	29.59737	38.97073	396.74014	6.10718	69.80828	325.83408	41.91757	51.23267	283.55807	311.73322	1074.41699	218.64775	74.01495	981.56165	127.63704	59.46659	631.73810	53.70839	50.89183	588.49182	58.48778	-1.24414	638.20660	57.21259	-2.52509	594.21063	61.48225	27.83151	555.90643	73.13036	-7.06097	557.66248	197.46869	99.13670	536.09680	69.38005	127.70629	505.57724	59.51613	58.51429	487.82288	71.91774	95.95168	461.19525	62.86566	345.63522	288.40283	122.28125	327.83530	259.17026	208.35757	415.67285	301.02396	175.92020	295.14386	125.10052	228.14464	255.61487	120.65456	180.11060	301.61581	118.95670	110.61130
879	3.51200	307.27155	1071.03882	302.23343	71.31582	982.72540	425.44119	77.64503	633.10925	469.08188	63.30776	592.69421	469.26422	21.02209	646.93713	450.61731	15.89764	603.41388	451.47318	58.25703	542.86707	460.44186	48.22015	543.45178	303.67358	112.36772	464.37222	458.57544	117.99033	416.27737	454.07413	52.86708	449.41653	447.26962	69.81761	405.18845	440.66495	177.45401	100.03295	402.12714	176.47156	109.40250	304.53580	252.71355	90.17822	355.01093	29.56387	38.95208	396.72043	5.88840	69.74993	325.25745	41.19127	51.35474	283.21033	306.17670	1074.90613	218.59055	67.92230	982.85144	127.93053	50.74031	633.37244	53.96904	41.79403	590.20752	58.81986	-10.30319	640.27887	57.85491	-11.63335	596.46118	61.99755	18.40564	557.87115	73.59019	-16.29055	559.93048	197.83173	89.56522	536.67664	69.78558	117.57195	505.59155	59.90928	48.17547	489.15225	72.32405	84.92404	461.79810	63.12688	331.19617	284.43811	122.43678	313.10266	255.48378	208.68163	401.64435	295.27872	176.12347	278.27255	122.41315	228.36418	238.03682	118.69926	180.16818	284.04761	115.85037	110.83159
880	3.51600	301.84573	1071.54309	302.13837	66.10667	983.10168	425.87726	75.51905	633.12305	469.00693	61.55878	592.54919	469.10379	18.70402	646.41583	450.64484	13.95815	602.89105	451.42038	56.76826	542.73083	460.22321	46.75019	543.17468	303.49896	111.13077	464.39496	458.38541	116.97714	416.34113	453.92255	51.74155	449.28391	447.11792	68.82026	405.05374	440.50064	177.35201	100.17679	402.10034	176.42557	109.56622	304.53094	252.87198	90.59000	355.25439	29.57147	38.89058	396.69958	5.82363	69.59342	325.33875	41.80396	51.09573	283.53192	300.62570	1075.32056	218.49294	61.86575	984.11682	128.27580	42.09849	634.94989	54.30570	32.68495	591.85846	59.25292	-18.92007	642.43817	58.39236	-20.58215	598.64709	62.58398	9.06477	559.82434	74.07564	-25.54959	562.26245	198.26091	80.11591	537.15979	70.21431	107.50819	505.52103	60.32221	37.75227	490.43304	72.80358	74.13177	462.40173	63.76572	316.93033	280.20013	122.75891	298.14441	251.50420	208.95746	387.54230	289.34918	176.62398	258.64557	119.30148	228.42905	219.91487	116.56720	180.07460	266.29688	112.65779	111.00365
